<svg id="Alyson_Project" data-name="Alyson Project" xmlns="http://www.w3.org/2000/svg" xmlns:xlink="http://www.w3.org/1999/xlink" width="24" height="24" viewBox="0 0 24 24">
  <defs>
    <clipPath id="clip-path">
      <rect id="Rectangle_7350" data-name="Rectangle 7350" width="24" height="24" fill="none"/>
    </clipPath>
    <clipPath id="clip-path-2">
      <path id="Path_18882" data-name="Path 18882" d="M8.578,3.879a5.051,5.051,0,0,0-1.342.147,3.039,3.039,0,0,0-2.49,3.283c.044,1.6,1.3,2.44,1.5,3.649S4.392,12.934,4.721,15.8a4.32,4.32,0,0,0,1.8,3.193A2.987,2.987,0,0,1,8.49,18.05a12.052,12.052,0,0,0,3.183-.19c.06-.016-.037-2.12-.037-2.12a5.726,5.726,0,0,1-1.034.351c-1.651.408-2.724-1.539-3.2-2.383a4.976,4.976,0,0,1-.753-2.43,9.8,9.8,0,0,1-.182-1.993A6,6,0,0,1,7.3,6.429a2.547,2.547,0,0,1,1.182-1.18A4.234,4.234,0,0,0,9.95,7.412c1.126,1.039,2.055,1.2,2.978,2.039a3.655,3.655,0,0,1,.659.847,4.072,4.072,0,0,0,.274.419,2.365,2.365,0,0,1,.362-.691A.721.721,0,0,1,15.4,9.953c.277.359.028,1.037-.2,1.376a2.716,2.716,0,0,1-.8.749s.051,3.692.28,4.983a3.342,3.342,0,0,0,1.638,2.514,4.58,4.58,0,0,0,3.413-4.45c-.126-1.956-.784-2.268-1.969-4.564-.593-1.146-.417-2.493-.925-4.356-.327-1.188-1.093-2.7-4.566-3.195a8.042,8.042,0,0,0-1.133-.086c-2.033,0-2.56.955-2.56.955" fill="none"/>
    </clipPath>
  </defs>
  <rect id="Rectangle_5151" data-name="Rectangle 5151" width="24" height="24" fill="none"/>
  <g id="Group_13004" data-name="Group 13004">
    <g id="Group_12999" data-name="Group 12999">
      <g id="Group_12998" data-name="Group 12998" clip-path="url(#clip-path)">
        <path id="Path_18867" data-name="Path 18867" d="M12,0A12,12,0,1,1,0,12,12,12,0,0,1,12,0" fill="#fea300"/>
        <path id="Path_18868" data-name="Path 18868" d="M12.749,1.457a10.62,10.62,0,1,1-11.3,9.892,10.62,10.62,0,0,1,11.3-9.892" fill="#f2f2f2"/>
        <path id="Path_18869" data-name="Path 18869" d="M8.633,4.8A4.605,4.605,0,0,0,6.349,7.578a43.391,43.391,0,0,0,.473,6.992l4.022,2.539L14.2,18.178l1.533-2.16.429-7.133S8.782,4.893,8.633,4.8" fill="#f3c4b5" fill-rule="evenodd"/>
        <path id="Path_18870" data-name="Path 18870" d="M8.523,13.764a6.594,6.594,0,0,1,.891-.167c.323-.037.645-.081.958-.145.1-.019.307-.106.4-.073.018,0-.076.2-.085.218a2.053,2.053,0,0,1-.452.522,1.028,1.028,0,0,1-1.716-.355" fill="#fff" fill-rule="evenodd"/>
        <path id="Path_18871" data-name="Path 18871" d="M7.967,13.506c.04-.017.231.147.34.1s.139-.17.261-.231c.069-.037.3.046.383.031.1-.01.232-.163.415-.162a15.591,15.591,0,0,0,1.559.027.89.89,0,0,0,.328-.085c.158-.076.176-.151.218-.1s-.024.156-.111.188a1.754,1.754,0,0,1-.467.12,11.953,11.953,0,0,1-1.706.362,3.637,3.637,0,0,1-1.11-.09c-.139-.048-.206-.111-.11-.156" fill="#be415b" fill-rule="evenodd"/>
        <path id="Path_18872" data-name="Path 18872" d="M8.469,13.663a4.736,4.736,0,0,0,.415.347.764.764,0,0,0,.772.243c.387-.131.841-.7,1.146-.838.1-.045.424-.214.423-.2a2.142,2.142,0,0,0-.427.474c-.186.336-.574,1.11-1.288,1.107a1.273,1.273,0,0,1-.967-.73c-.094-.143-.16-.252-.243-.378-.015-.015.136,0,.169-.02" fill="#be415b" fill-rule="evenodd"/>
        <path id="Path_18873" data-name="Path 18873" d="M11.221,12.988c-.007.053.144.075.233.175s.115.23.162.217c.087-.024,0-.257-.105-.349-.074-.064-.274-.131-.29-.043" fill="#be415b" fill-rule="evenodd"/>
        <path id="Path_18874" data-name="Path 18874" d="M8.013,13.385c.037.032-.012.07.009.2.011.107.047.153.015.178-.066.034-.1-.073-.125-.2s.034-.233.1-.177" fill="#be415b" fill-rule="evenodd"/>
        <path id="Path_18875" data-name="Path 18875" d="M8.259,4.952a4.008,4.008,0,0,0,3.176,3.607,21.969,21.969,0,0,1,2.3,1.431c.308.185-.442-1.728-.79-2.19a12.933,12.933,0,0,0-2.664-2.754c-.532-.369-1.735-1.131-2.02-.094" fill="#e9896e" fill-rule="evenodd"/>
        <path id="Path_18876" data-name="Path 18876" d="M10.987,16.108c.331-.013.571-.3,1.032-.586.139-.081.65-.623.631-.48a1.919,1.919,0,0,1-1.062,1.43c-.093.053-.273.052-.393.166-.035.038-.238-.276-.208-.53" fill="#e9896e" fill-rule="evenodd"/>
        <path id="Path_18877" data-name="Path 18877" d="M14.844,10.039a2.165,2.165,0,0,0-.491.256.426.426,0,0,0-.122.484c.153.351.344.548.446-.2.049-.337.333-.46.3-.6" fill="#e9896e" fill-rule="evenodd"/>
        <path id="Path_18878" data-name="Path 18878" d="M9.434,8.984c.208.061.212-.241,1.223-.443a4.656,4.656,0,0,1,1.318,0,2.579,2.579,0,0,0-1-.283,2.143,2.143,0,0,0-1.065.218c-.353.18-.653.462-.479.512" fill="#131834" fill-rule="evenodd"/>
        <path id="Path_18879" data-name="Path 18879" d="M8.007,9.075c-.119.093-.332-.235-1.119-.215a3.3,3.3,0,0,0-.993.2s.048-.346.64-.454a2.011,2.011,0,0,1,.977.06c.251.069.671.276.495.413" fill="#131834" fill-rule="evenodd"/>
        <path id="Path_18880" data-name="Path 18880" d="M8.487,5.249a2.536,2.536,0,0,0-1.181,1.18,5.987,5.987,0,0,0-.842,2.856,9.805,9.805,0,0,0,.183,1.993A4.951,4.951,0,0,0,7.4,13.707c.478.845,1.551,2.792,3.2,2.383a5.656,5.656,0,0,0,1.035-.35s.1,2.1.037,2.12a12.017,12.017,0,0,1-3.184.189,2.991,2.991,0,0,0-1.967.939,4.327,4.327,0,0,1-1.8-3.194c-.329-2.861,1.724-3.627,1.524-4.836s-1.454-2.046-1.5-3.649a3.038,3.038,0,0,1,2.49-3.283,5.015,5.015,0,0,1,1.342-.147s.716-1.3,3.694-.869c3.472.5,4.239,2.007,4.566,3.195.507,1.863.332,3.209.925,4.356,1.184,2.3,1.842,2.608,1.968,4.564a4.581,4.581,0,0,1-3.413,4.45A3.347,3.347,0,0,1,14.68,17.06c-.228-1.29-.28-4.982-.28-4.982a2.719,2.719,0,0,0,.8-.749c.232-.339.48-1.017.2-1.376a.723.723,0,0,0-1.016-.113.738.738,0,0,0-.163.185,2.413,2.413,0,0,0-.361.691,3.975,3.975,0,0,1-.275-.419,3.646,3.646,0,0,0-.658-.845c-.924-.841-1.853-1-2.978-2.04A4.236,4.236,0,0,1,8.487,5.249" fill="#131834" fill-rule="evenodd"/>
      </g>
    </g>
    <g id="Group_13001" data-name="Group 13001">
      <g id="Group_13000" data-name="Group 13000" clip-path="url(#clip-path-2)">
        <path id="Path_18881" data-name="Path 18881" d="M7.123,3.868A6.01,6.01,0,0,0,6.164,8.02c.3,1.2.629,1.215.959,2.365.272.943,2.364,2.629,3.827,4.143.166.169,2.918-3.891,3.2-2.727,1.077,4.439,3.295,7.419,5.961,4.442,1.632-1.831.679,4.9.642,5.157-.139.9-16.188-1.574-16.8-.874-.271.317-.642-12.069.586-14.354A5.327,5.327,0,0,1,5.8,4.534a1.5,1.5,0,0,1,.642-.371" fill="#0b0e18" fill-rule="evenodd"/>
      </g>
    </g>
    <g id="Group_13003" data-name="Group 13003">
      <g id="Group_13002" data-name="Group 13002" clip-path="url(#clip-path)">
        <path id="Path_18883" data-name="Path 18883" d="M14.393,11.579a.061.061,0,0,1-.033,0,.077.077,0,0,1-.033-.095.555.555,0,0,0,.041-.428c0-.034-.029-.055-.072-.08a.377.377,0,0,1-.123-.159.6.6,0,0,1,.21-.574c.169-.172.428-.326.577-.292a.073.073,0,0,1,.053.089v0a.073.073,0,0,1-.087.053.741.741,0,0,0-.438.253.481.481,0,0,0-.178.427c.011.034.035.055.079.091a.286.286,0,0,1,.123.166.719.719,0,0,1-.055.521.1.1,0,0,1-.063.027" fill="#9b442c"/>
        <path id="Path_18884" data-name="Path 18884" d="M9.017,12.666H9a1.051,1.051,0,0,0-.2-.014c-.223,0-.525,0-.615-.323a.759.759,0,0,1,.074-.424,3.244,3.244,0,0,0,.193-.837.085.085,0,1,1,.17.012,3.19,3.19,0,0,1-.2.871.786.786,0,0,0-.073.324c.053.186.21.2.451.2a.98.98,0,0,1,.242.016.089.089,0,0,1,.066.1.084.084,0,0,1-.084.072" fill="#9b442c"/>
        <path id="Path_18885" data-name="Path 18885" d="M9.28,10.093c.026-.391.545-.59,1.341-.727.543-.1,1.838-.263,2.078.247a1.947,1.947,0,0,1-.572,1.908,1.97,1.97,0,0,1-1.97.052,1.618,1.618,0,0,1-.877-1.48" fill="#fff" fill-rule="evenodd"/>
        <path id="Path_18886" data-name="Path 18886" d="M9.188,10.091h0a.573.573,0,0,1,.3-.463,3.138,3.138,0,0,1,1.108-.356,5.148,5.148,0,0,1,1.571-.079.8.8,0,0,1,.634.372,1.583,1.583,0,0,1-.012,1.11,2.24,2.24,0,0,1-.58.928,1.4,1.4,0,0,1-.833.31,2.463,2.463,0,0,1-1.261-.246,1.832,1.832,0,0,1-.691-.654,1.591,1.591,0,0,1-.232-.922m.182.018h0a1.346,1.346,0,0,0,.215.8,1.573,1.573,0,0,0,.621.568,2.322,2.322,0,0,0,.95.219,1.331,1.331,0,0,0,.894-.266,1.9,1.9,0,0,0,.516-.829,1.372,1.372,0,0,0,.038-.949.415.415,0,0,0-.2-.171,1.541,1.541,0,0,0-.474-.112,5.591,5.591,0,0,0-1.285.089,3.69,3.69,0,0,0-.91.244c-.222.109-.352.227-.362.4Z" fill="#131834" fill-rule="evenodd"/>
        <path id="Path_18887" data-name="Path 18887" d="M13.669,10.515h-.013l-.884-.117a.112.112,0,0,1,.027-.222l.885.118a.12.12,0,0,1,.1.124.127.127,0,0,1-.111.1" fill="#142045"/>
        <path id="Path_18888" data-name="Path 18888" d="M8.313,10.316C8.241,9.985,7.82,9.87,7.2,9.834c-.42-.033-1.437-.036-1.544.42a1.84,1.84,0,0,0,.685,1.567,1.372,1.372,0,0,0,1.977-1.505" fill="#fff" fill-rule="evenodd"/>
        <path id="Path_18889" data-name="Path 18889" d="M8.4,10.293h0a1.475,1.475,0,0,1-.045.793,1.431,1.431,0,0,1-.451.662,1.8,1.8,0,0,1-.785.334,1.137,1.137,0,0,1-.86-.169,1.983,1.983,0,0,1-.575-.751,1.507,1.507,0,0,1-.157-.937.614.614,0,0,1,.451-.4,3.544,3.544,0,0,1,1.222-.1,2.837,2.837,0,0,1,.8.144.573.573,0,0,1,.4.417m-.18.045h0a.418.418,0,0,0-.293-.287,2.471,2.471,0,0,0-.738-.118,4.158,4.158,0,0,0-.99.056,1.016,1.016,0,0,0-.338.137.266.266,0,0,0-.111.155,1.275,1.275,0,0,0,.15.787,1.731,1.731,0,0,0,.5.654.921.921,0,0,0,.684.131,1.489,1.489,0,0,0,.686-.275,1.26,1.26,0,0,0,.4-.559,1.225,1.225,0,0,0,.05-.686Z" fill="#131834" fill-rule="evenodd"/>
        <path id="Path_18890" data-name="Path 18890" d="M8.432,10.68a.094.094,0,0,1-.1.071.1.1,0,0,1-.072-.1.646.646,0,0,1,.133-.3.525.525,0,0,1,.3-.169.509.509,0,0,1,.223.014l.083.019a1.149,1.149,0,0,1,.145.082.924.924,0,0,1,.18.162.088.088,0,0,1-.1.143,2.463,2.463,0,0,0-.269-.1l-.1-.025a.427.427,0,0,0-.133-.009.311.311,0,0,0-.171.048.442.442,0,0,0-.116.163" fill="#131834" fill-rule="evenodd"/>
        <path id="Path_18891" data-name="Path 18891" d="M9.916,10.686a1.214,1.214,0,0,1,.552-.8,1.4,1.4,0,0,1,1.022-.1,2.365,2.365,0,0,0,.778.032,1.018,1.018,0,0,1-.423.34.891.891,0,0,1-.391-.026,1.625,1.625,0,0,0-.571-.072,1.458,1.458,0,0,0-.967.631" fill="#003f88" fill-rule="evenodd"/>
        <path id="Path_18892" data-name="Path 18892" d="M10.465,10.241a.5.5,0,1,1,.427.56.5.5,0,0,1-.427-.56" fill="#003f88"/>
        <path id="Path_18893" data-name="Path 18893" d="M8.071,10.87a.506.506,0,0,0-.2-.571,1.167,1.167,0,0,0-.867-.1,1.772,1.772,0,0,1-.64.058.972.972,0,0,0,.408.317.7.7,0,0,0,.349-.039.77.77,0,0,1,.382-.063c.351.032.428.236.567.4" fill="#003f88" fill-rule="evenodd"/>
        <path id="Path_18894" data-name="Path 18894" d="M7.741,10.288a.351.351,0,0,0-.414.276.321.321,0,0,0-.007.082.438.438,0,0,0,.393.477h.023c.246-.006.355-.124.376-.376a.488.488,0,0,0-.371-.46" fill="#003f88" fill-rule="evenodd"/>
        <path id="Path_18895" data-name="Path 18895" d="M14.642,17.271A3.315,3.315,0,0,0,15.875,18.7a2.046,2.046,0,0,0,2.037.174,8.635,8.635,0,0,1-6.292,1.9,9.3,9.3,0,0,1-5.49-1.841,3.619,3.619,0,0,1,.693-.976,3.431,3.431,0,0,1,2.8-.758,5.868,5.868,0,0,0,2.012-.115s.16.469,1.037.6a3.744,3.744,0,0,0,1.97-.422" fill="#fea300" fill-rule="evenodd"/>
        <path id="Path_18896" data-name="Path 18896" d="M12.856,18.376a1.794,1.794,0,0,1-1.585-.873A.077.077,0,0,1,11.3,17.4l.012-.006a.078.078,0,0,1,.105.031l0,0a1.63,1.63,0,0,0,1.632.758.083.083,0,1,1,.039.162.891.891,0,0,1-.23.03" fill="#9f4831"/>
        <path id="Path_18897" data-name="Path 18897" d="M11.587,15.893a.074.074,0,0,1-.063-.044.075.075,0,0,1,.034-.1A3.91,3.91,0,0,0,12.571,15a.338.338,0,0,1,.074-.067.064.064,0,0,1,.092,0l.006.007a.065.065,0,0,1,0,.092l-.007.006-.075.067a4.249,4.249,0,0,1-1.054.776.025.025,0,0,1-.021.012" fill="#9f4831"/>
      </g>
    </g>
  </g>
</svg>
